<svg width="216" height="48" viewBox="0 0 216 48" fill="none" xmlns="http://www.w3.org/2000/svg">
<path fill-rule="evenodd" clip-rule="evenodd" d="M24.3086 0C37.6575 0 48.4277 10.756 48.4277 23.9749C48.4277 37.1937 37.6575 48 24.3086 48C10.9596 48 0.189453 37.244 0.189453 23.9749C0.189453 10.7058 11.0102 0 24.3086 0ZM24.3086 4.57382C35.1293 4.57382 43.8769 13.2691 43.8769 24.0251C43.8769 31.1623 39.9834 37.445 34.1686 40.8126C35.3821 36.5906 35.8877 32.2681 35.6855 27.2921C36.9496 27.644 37.6575 27.845 38.9216 28.2471C37.4552 24.578 35.8877 21.2607 33.8146 17.8932C31.9943 21.3613 29.5167 24.6283 27.039 27.1916L31.0842 26.9403C27.5952 33.1225 22.6905 36.1382 16.4711 36.9927C15.0553 30.0063 16.1172 18.5969 24.0557 13.2691L24.8648 17.089C26.4323 14.6262 29.4661 11.3592 31.7415 9.09738C28.1514 7.69005 24.0052 7.2377 19.96 7.99162C20.2887 8.26807 20.6553 8.58222 21.0219 8.89636L21.0221 8.89649C21.3886 9.21057 21.7551 9.52465 22.0837 9.80105C13.1339 13.5707 8.22915 19.7529 4.99305 26.9403C4.84136 25.9853 4.79079 24.9801 4.79079 24.0251C4.79079 13.2691 13.5384 4.57382 24.3086 4.57382ZM69.9674 35.6383V36.6937H67.1358V38.7042H70.2708V39.7597H65.9223V32.7733H70.2202V33.8288H67.0853V35.588C68.046 35.6383 69.0067 35.6383 69.9674 35.6383ZM61.0176 39.7095H56.7196V32.7733H57.9331V38.654H61.0681C61.0176 39.0058 61.0176 39.3576 61.0176 39.7095ZM84.0243 32.8236L82.4062 34.6833C82.3051 34.633 82.204 34.5953 82.1029 34.5576L82.1028 34.5576C82.0017 34.5199 81.9006 34.4822 81.7994 34.432L82.4062 32.8236H84.0243ZM86.9064 34.0801C86.7547 34.1807 86.6536 34.3817 86.6536 34.7335C86.6536 35.3367 86.8558 35.5377 87.412 35.6383L88.5245 35.7388C89.6369 35.8393 90.2942 36.4424 90.2942 37.6487V38.0508C90.2942 38.3524 90.2436 38.654 90.1425 38.9053C90.0414 39.1566 89.8897 39.3576 89.6874 39.5084C89.4346 39.7095 89.1312 39.7597 88.8279 39.81C88.5245 39.8602 88.1705 39.8602 87.8671 39.8602H85.5917V38.654H88.3728C88.8784 38.654 89.1818 38.5534 89.1312 37.7995C89.1312 37.4477 89.0301 37.2466 88.929 37.1461C88.7773 37.0456 88.575 36.9953 88.3222 36.9451L87.1592 36.8445C86.7547 36.7943 86.2996 36.6937 85.9963 36.3922C85.6929 36.0906 85.4906 35.6383 85.4906 34.8843V34.5325C85.5412 33.7786 85.794 33.3262 86.2491 33.0749C86.7041 32.8236 87.3109 32.7733 87.9177 32.7733H89.9908V33.9796H87.766C87.3615 33.9796 87.0581 33.9796 86.9064 34.0801ZM101.014 39.7095V32.7733H104.048C104.3 32.7733 104.654 32.8739 104.958 33.0749C105.261 33.2759 105.463 33.6278 105.463 34.1807V35.0351C105.463 35.6382 105.16 35.9398 104.958 36.1409C105.16 36.2917 105.463 36.6435 105.463 37.1964V38.3021C105.463 39.056 104.806 39.7095 104.048 39.7095H101.014ZM104.149 36.7943C104.098 36.744 103.947 36.6435 103.845 36.6435H102.177V38.6037H103.845C103.947 38.6037 104.048 38.5534 104.149 38.4529C104.199 38.4026 104.25 38.3021 104.25 38.1513V37.0958C104.3 37.0456 104.25 36.8948 104.149 36.7943ZM104.199 33.9796C104.098 33.8791 103.997 33.8288 103.845 33.8288H102.177V35.588H103.896C103.997 35.588 104.098 35.5377 104.199 35.4372C104.3 35.3367 104.351 35.1859 104.351 35.0854V34.2812C104.317 34.2477 104.284 34.1695 104.25 34.0913C104.233 34.0522 104.216 34.0131 104.199 33.9796ZM147.937 35.6383H150.769V36.6937H147.937V38.7042H151.072V39.7597H146.774V32.7733H151.072V33.8288H147.937V35.6383ZM141.313 39.7095H137.42V32.7733H138.634V38.654H141.313V39.7095ZM132.768 33.8791H130.998V39.7095H129.785V33.8791H128.015V32.8236H132.768V33.8791ZM123.313 33.8791H121.543V39.7095H120.329V33.8791H118.56V32.8236H123.313V33.8791ZM111.127 38.2519L110.773 39.7597H109.509L111.43 32.8236H112.998L114.919 39.7597H113.655L113.25 38.2519H111.127ZM112.896 37.1964L112.138 34.1807L111.379 37.1964H112.896ZM79.2712 33.8791H77.5015V39.7095H76.2879V33.8791H74.5182V32.8236H79.2712V33.8791ZM67.2875 23.6257L71.5349 8.29584H67.7932L65.4672 18.2477L63.8492 8.29584H59.6018L57.9837 18.2477L55.6578 8.29584H51.916L56.1634 23.6257H60.0063L61.7255 13.8749L63.4446 23.6257H67.2875ZM73.9114 23.6257L74.6193 20.4592H78.5128L79.2207 23.6257H82.7096L78.4622 8.29584H74.6193L70.4225 23.6257H73.9114ZM76.5913 12.0655L77.906 17.8456H75.2766L76.5913 12.0655ZM87.8166 17.8958H89.9403L92.0134 23.6257H95.8563L93.1258 17.2424C94.2888 16.8403 95.0472 15.8351 95.0472 14.6288V11.211C95.0472 9.80369 94.0865 8.74819 92.8224 8.44662C92.1493 8.27936 91.4763 8.28604 90.7741 8.29301C90.6323 8.29442 90.4892 8.29584 90.3448 8.29584H84.5299V23.6257H87.8166V17.8958ZM87.8166 11.2613H90.5976C91.2044 11.2613 91.7606 11.5629 91.7606 12.2665V13.7744C91.7606 14.5283 91.2549 14.8801 90.5976 14.8801H87.8166V11.2613ZM104.907 23.7765C106.525 23.7765 107.486 23.3241 108.295 22.721V14.5786H103.087V17.4937H105.008V20.4089C104.705 20.4592 104.351 20.5095 103.997 20.5095H102.682C100.812 20.5095 100.356 19.2026 100.356 17.7953V13.9754C100.356 12.5178 101.014 11.4623 102.784 11.4623H108.042V8.19531H102.581C99.5474 8.19531 97.3732 10.0047 97.0698 13.121C97.0698 13.2465 97.0572 13.3721 97.0445 13.4977L97.0445 13.4979C97.0319 13.6236 97.0192 13.7492 97.0192 13.8749V18.2979C97.0192 21.5147 99.2441 23.7765 102.278 23.7765H104.907ZM112.846 23.6257L113.554 20.4592H117.447L118.155 23.6257H121.644L117.397 8.29584H113.554L109.357 23.6257H112.846ZM115.475 12.0655L116.79 17.8456H114.16L115.475 12.0655ZM137.622 23.6257V8.29584H133.476L130.392 19.7053L127.358 8.29584H123.211V23.6257H126.346V14.2267L128.723 23.6257H132.06L134.437 14.2267V23.6257H137.622ZM140.353 8.29584V23.6257H143.639V8.29584H140.353ZM154.561 8.29584V17.4435L149.606 8.29584H146.37V23.6257H149.505V14.478L154.511 23.6257H157.747V8.29584H154.561ZM187.377 8.29584V17.4435L182.422 8.29584H179.186V23.6257H182.321V14.478L187.327 23.6257H190.563V8.29584H187.377ZM196.378 11.2613H202.901V8.29584H193.091V23.6257H202.901V20.6602H196.378V17.1419H202.294V14.2267H196.378V11.2613ZM204.569 8.29584V11.2613H208.311V23.6257H211.598V11.2613H215.289V8.29584H204.569ZM167.556 23.7765C169.174 23.7765 170.135 23.3241 170.944 22.721V14.5786H165.736V17.4937H167.657V20.4089C167.354 20.4592 167 20.5095 166.646 20.5095H165.331C163.461 20.5095 163.005 19.2026 163.005 17.7953V13.9754C163.005 12.5178 163.663 11.4623 165.433 11.4623H170.691V8.19531H165.23C162.196 8.19531 160.022 10.0047 159.719 13.121C159.719 13.2466 159.706 13.3723 159.693 13.4979C159.681 13.6236 159.668 13.7492 159.668 13.8749V18.2979C159.668 21.5147 161.893 23.7765 164.927 23.7765H167.556ZM173.572 23.876H176.758V20.7598H173.572V23.876Z" fill="black"/>
</svg>
