<svg width="122" height="56" viewBox="0 0 122 56" fill="none" xmlns="http://www.w3.org/2000/svg">
<path fill-rule="evenodd" clip-rule="evenodd" d="M39.611 3.91896C39.4155 4.22372 39.2542 4.47509 39.3195 4.81656C39.4332 5.41863 39.542 5.99069 39.6459 6.53671C40.7966 12.5868 41.3393 15.4397 41.2071 20.4983C41.1856 21.2979 40.7243 22.4658 40.1362 23.9549C38.3107 28.5768 35.2635 36.292 40.3558 45.682C40.6301 46.1881 41.1714 48.6838 39.948 48.7047C35.8802 48.7632 34.7073 48.7593 32.559 48.7522C31.4951 48.7487 30.192 48.7443 28.1795 48.7464C25.151 48.7368 23.0569 50.0671 20.6565 51.592C17.8428 53.3794 14.6081 55.4342 8.95399 55.9122C9.51581 54.7963 9.76459 53.7906 9.99925 52.842C10.2813 51.7018 10.5429 50.6442 11.3031 49.577C4.8928 46.9664 0.961914 40.7636 0.961914 32.931C0.961914 22.488 9.50264 14.0096 20.0225 14.0096C22.4167 14.1108 24.8152 14.4468 27.2095 15.3431C27.7297 15.5382 28.9048 15.221 28.9185 14.7598C29.0054 12.13 28.2486 8.22704 27.7587 5.70087C27.5381 4.56291 27.3716 3.70433 27.3608 3.36732C27.0086 -1.645 32.5224 -0.22391 31.2076 3.30055C30.1885 6.03575 30.9408 7.73867 31.9999 10.1362C32.6764 11.6676 33.4781 13.4824 34.0233 16.0307C34.2062 16.882 35.314 18.2645 35.891 17.1053C37.0513 14.788 38.1161 10.1909 36.281 3.57705C35.068 -0.464947 40.0437 -1.29964 40.1277 2.205C40.163 3.05853 39.8594 3.53181 39.611 3.91896ZM23.5173 45.1348C26.6028 43.9074 29.6734 42.6858 31.9874 43.1581C35.8808 43.9532 34.0519 38.5777 32.5503 34.1641C32.0201 32.6059 31.5308 31.1676 31.3484 30.1631L30.145 29.6434C30.114 29.5203 30.0866 29.4047 30.061 29.2963C29.904 28.6329 29.8106 28.2381 29.3336 28.0346C27.3803 27.2022 25.0066 28.4955 23.0275 29.5738C22.4093 29.9106 21.8295 30.2265 21.3132 30.45L19.273 29.8458L17.4737 32.0453L19.8469 38.537L20.7046 37.8182L21.2816 39.1516L22.547 37.3299L20.9715 33.9933C21.4917 33.7778 22.0259 33.5394 22.558 33.3019C25.2703 32.0914 27.9248 30.9065 28.3625 32.931C28.4548 33.3466 28.6032 33.8342 28.7581 34.3431C29.3226 36.1981 29.9734 38.3368 28.3099 38.3065C26.3603 38.4945 23.4814 39.6285 20.7073 40.7213C19.5092 41.1932 18.3307 41.6574 17.255 42.0344L16.4783 37.2736C16.4384 37.0879 16.2912 36.7517 16.1127 36.3439C15.6803 35.3563 15.064 33.9487 15.3422 33.242C15.2321 33.0867 14.9113 32.9789 14.5858 32.8696C14.2465 32.7556 13.902 32.6399 13.7856 32.4668C13.4549 31.9804 13.3926 31.3994 13.3303 30.8195C13.2694 30.2512 13.2085 29.6839 12.8954 29.2073C15.1123 27.1755 17.1882 26.4755 19.7072 25.6261C20.5644 25.3371 21.4728 25.0308 22.4556 24.6488L32.8599 26.1252L33.4505 22.1636L31.2034 21.6711L30.6862 19.6292L23.4583 19.2703C15.1604 20.5442 5.78615 25.3886 6.61966 28.502C6.66926 28.6879 6.65081 28.9384 6.62996 29.2213C6.59207 29.7355 6.54627 30.357 6.88662 30.8934C7.10695 31.239 7.35112 31.5215 7.59836 31.8075C7.99742 32.2691 8.40447 32.7399 8.73219 33.5007C9.1992 34.6376 9.69318 36.156 10.2174 37.7674C11.5845 41.9696 13.1573 46.8043 14.9943 47.1542C17.3635 47.583 20.4478 46.356 23.5173 45.1348ZM79.865 21.9956L77.2314 20.3419L79.7666 17.4654C80.1287 17.0574 81.2159 16.6484 83.0498 16.1945C83.118 16.1735 83.1856 16.1568 83.2435 16.1426C83.3091 16.1264 83.3618 16.1134 83.3882 16.1006L84.3267 18.0903L84.1987 18.2071C83.0563 19.2494 82.1821 20.0467 81.5986 20.5579C81.4846 20.6535 81.3728 20.7484 81.2625 20.842L81.1901 20.9034L81.17 20.9204L81.17 20.9205L81.1694 20.9209L81.1689 20.9214C80.7053 21.314 80.2699 21.6827 79.865 21.9956ZM77.5127 52.0496H78.1425V51.4736H77.5127V52.0496ZM77.5474 55.9027H78.1071V52.7758H77.5474V55.9027ZM42.7108 55.871C42.6046 55.8981 42.4921 55.9201 42.3661 55.9367C42.2431 55.9545 42.1338 55.9649 42.035 55.9649C41.6944 55.9649 41.438 55.8741 41.2614 55.6926C41.0859 55.5111 40.9944 55.222 40.9944 54.8204V53.0644H40.6182V52.597H40.9944V51.6475H41.5567V52.597H42.7108V53.0644H41.5567V54.5689C41.5567 54.7432 41.5609 54.8798 41.5672 54.9769C41.5746 55.075 41.603 55.1657 41.6524 55.2492C41.6944 55.3295 41.7543 55.3859 41.8311 55.4245C41.9088 55.4589 42.0245 55.4766 42.1832 55.4766C42.2746 55.4766 42.3692 55.462 42.468 55.438C42.5657 55.4098 42.6362 55.3889 42.6824 55.3712H42.7108V55.871ZM25.0863 54.3233H27.5373V54.0197C27.5373 53.5418 27.4144 53.1714 27.1716 52.9137C26.9287 52.6518 26.584 52.5225 26.1342 52.5225C25.6497 52.5225 25.2587 52.6789 24.9634 52.9972C24.6648 53.3144 24.5166 53.7442 24.5166 54.2847C24.5166 54.8293 24.6722 55.2519 24.9812 55.5482C25.2902 55.8456 25.7233 55.9917 26.2751 55.9917C26.4894 55.9917 26.6976 55.9676 26.8941 55.9145C27.0906 55.8591 27.284 55.7924 27.4711 55.7162V55.109H27.4427C27.3439 55.1955 27.1821 55.2832 26.9498 55.374C26.7217 55.4648 26.4936 55.5096 26.2687 55.5065C26.0995 55.5096 25.9408 55.4856 25.801 55.4365C25.656 55.3917 25.533 55.3176 25.431 55.2237C25.3259 55.1298 25.2419 55.0036 25.1777 54.8533C25.1178 54.7041 25.0863 54.5257 25.0863 54.3233ZM26.7711 53.2205C26.9151 53.3812 26.9887 53.6044 26.9929 53.8976H25.0863C25.1115 53.6357 25.2103 53.4187 25.389 53.2444C25.5655 53.0671 25.8042 52.9794 26.1027 52.9794C26.4022 52.9794 26.6229 53.0598 26.7711 53.2205ZM34.9768 55.9145H35.5359V53.7713C35.5359 53.3665 35.4445 53.0598 35.2543 52.8438C35.0651 52.6299 34.7908 52.5225 34.4313 52.5225C34.2348 52.5225 34.0445 52.5642 33.8585 52.6446C33.6724 52.7249 33.4896 52.8364 33.314 52.9794V52.6132H32.7549V55.9145H33.314V53.451C33.4685 53.3352 33.6262 53.2382 33.7954 53.1641C33.9604 53.088 34.1223 53.0525 34.2736 53.0525C34.425 53.0525 34.5438 53.0702 34.6394 53.1119C34.7308 53.1537 34.8013 53.2131 34.8538 53.2966C34.899 53.3707 34.9305 53.4751 34.9526 53.6075C34.9694 53.7401 34.9768 53.8829 34.9768 54.0374V55.9145ZM48.0899 54.3233H50.541V54.0197C50.541 53.5418 50.4212 53.1714 50.1783 52.9137C49.9324 52.6518 49.5877 52.5225 49.1378 52.5225C48.6565 52.5225 48.2654 52.6789 47.967 52.9972C47.6716 53.3144 47.5203 53.7442 47.5245 54.2847C47.5203 54.8293 47.6789 55.2519 47.988 55.5482C48.297 55.8456 48.7269 55.9917 49.2787 55.9917C49.4963 55.9917 49.7033 55.9676 49.8977 55.9145C50.0943 55.8591 50.2877 55.7924 50.4769 55.7162V55.109H50.4453C50.3507 55.1955 50.1857 55.2832 49.9577 55.374C49.7285 55.4648 49.4993 55.5096 49.2745 55.5065C49.1032 55.5096 48.9475 55.4856 48.8036 55.4365C48.6638 55.3917 48.5398 55.3176 48.4379 55.2237C48.3296 55.1298 48.2444 55.0036 48.1846 54.8533C48.1215 54.7041 48.0899 54.5257 48.0899 54.3233ZM49.7737 53.2205C49.9219 53.3812 49.9955 53.6044 49.9955 53.8976H48.0899C48.1141 53.6357 48.2171 53.4187 48.3927 53.2444C48.5713 53.0671 48.8109 52.9794 49.1095 52.9794C49.4079 52.9794 49.6308 53.0598 49.7737 53.2205ZM57.8414 53.2176H57.8129C57.7278 53.1967 57.6469 53.1821 57.5701 53.1759C57.4893 53.1654 57.3977 53.1612 57.2885 53.1612C57.1161 53.1612 56.9511 53.1998 56.7893 53.2729C56.6274 53.3501 56.4729 53.4482 56.3247 53.5703V55.9115H55.7666V52.6104H56.3247V53.0986C56.5475 52.9203 56.743 52.795 56.9122 52.722C57.0846 52.6489 57.2569 52.6104 57.4325 52.6104C57.5313 52.6104 57.6017 52.6134 57.6437 52.6177L57.6858 52.6232C57.7265 52.6284 57.7773 52.6349 57.8414 52.6448V53.2176ZM64.1161 55.9367C64.2421 55.9201 64.3547 55.8981 64.4607 55.871V55.3712H64.4324C64.3862 55.3889 64.3168 55.4098 64.218 55.438C64.1192 55.462 64.0246 55.4766 63.9332 55.4766C63.7745 55.4766 63.6588 55.4589 63.5821 55.4245C63.5043 55.3859 63.4444 55.3295 63.4024 55.2492C63.353 55.1657 63.3246 55.075 63.3183 54.9769C63.3109 54.8798 63.3078 54.7432 63.3078 54.5689V53.0644H64.4607V52.597H63.3078V51.6475H62.7444V52.597H62.3682V53.0644H62.7444V54.8204C62.7444 55.222 62.8359 55.5111 63.0124 55.6926C63.1879 55.8741 63.4444 55.9649 63.786 55.9649C63.8838 55.9649 63.9931 55.9545 64.1161 55.9367ZM72.0938 55.904H71.5335V55.5555C71.4853 55.5868 71.4177 55.6358 71.3334 55.6953C71.2498 55.7548 71.1688 55.8028 71.0877 55.8383C70.9964 55.8831 70.887 55.9217 70.7674 55.953C70.6445 55.9812 70.5036 55.9989 70.3428 55.9989C70.0398 55.9989 69.7864 55.8977 69.5792 55.7016C69.3682 55.5033 69.2666 55.2519 69.2666 54.9483C69.2666 54.6968 69.3187 54.4944 69.4281 54.341C69.5361 54.1866 69.6918 54.0656 69.8919 53.9748C70.0926 53.8872 70.3351 53.8276 70.62 53.7964C70.905 53.7651 71.2106 53.7411 71.5335 53.7233V53.6388C71.5335 53.5137 71.5136 53.4082 71.4672 53.3248C71.4254 53.2413 71.3579 53.1787 71.2768 53.1297C71.1971 53.0838 71.1012 53.0525 70.9893 53.0389C70.8799 53.0212 70.7641 53.0149 70.6413 53.0149C70.494 53.0149 70.3312 53.0316 70.1492 53.0702C69.9697 53.1088 69.7831 53.1641 69.5902 53.2382H69.5619V52.6758C69.6712 52.6445 69.8288 52.6132 70.0327 52.5788C70.2399 52.5402 70.4444 52.5225 70.6445 52.5225C70.8799 52.5225 71.0832 52.5433 71.2562 52.5819C71.428 52.6195 71.5798 52.6863 71.7059 52.7771C71.8326 52.8678 71.9278 52.9867 71.9947 53.1297C72.0578 53.2726 72.0938 53.4511 72.0938 53.6639V55.904ZM71.5335 55.0912V54.1731C71.365 54.1835 71.1655 54.1981 70.9333 54.219C70.7011 54.2367 70.5184 54.268 70.3801 54.3024C70.2225 54.3473 70.0926 54.4172 69.9903 54.5153C69.8919 54.6091 69.8423 54.7417 69.8423 54.9097C69.8423 55.0985 69.9034 55.2415 70.0147 55.3353C70.1312 55.4334 70.3068 55.4783 70.5422 55.4783C70.7391 55.4783 70.9185 55.4438 71.0832 55.3666C71.2453 55.2905 71.3965 55.1997 71.5335 55.0912ZM86.3684 55.9145H85.8088V54.0374C85.8088 53.8829 85.803 53.7401 85.785 53.6075C85.7638 53.4751 85.7322 53.3707 85.6859 53.2966C85.6338 53.2131 85.563 53.1537 85.4717 53.1119C85.3771 53.0702 85.2575 53.0525 85.1057 53.0525C84.9545 53.0525 84.7937 53.088 84.6277 53.1641C84.4592 53.2382 84.3009 53.3352 84.1466 53.451V55.9145H83.5869V52.6132H84.1466V52.9794C84.3228 52.8364 84.5049 52.7249 84.6908 52.6446C84.878 52.5642 85.0677 52.5225 85.2646 52.5225C85.6229 52.5225 85.8976 52.6299 86.0873 52.8438C86.2764 53.0598 86.3684 53.3665 86.3684 53.7713V55.9145ZM96.1099 55.9145H96.6728V53.7713C96.6728 53.377 96.5847 53.0702 96.4123 52.8501C96.2367 52.6299 95.9691 52.5225 95.6043 52.5225C95.3895 52.5225 95.1888 52.5642 95.0029 52.6476C94.8157 52.7322 94.6117 52.8678 94.384 53.0567C94.3062 52.8887 94.1904 52.7593 94.0315 52.6654C93.8739 52.5673 93.6809 52.5225 93.4558 52.5225C93.259 52.5225 93.0724 52.5642 92.9 52.6446C92.7244 52.7249 92.552 52.8364 92.3764 52.9794V52.6132H91.8174V55.9145H92.3764V53.451C92.5308 53.3352 92.6819 53.2382 92.837 53.1641C92.9913 53.088 93.1425 53.0525 93.2969 53.0525C93.459 53.0525 93.5819 53.0734 93.6661 53.1161C93.7511 53.1568 93.8173 53.2204 93.8636 53.3039C93.9054 53.3842 93.9299 53.4896 93.9447 53.6211C93.9582 53.7515 93.9653 53.8903 93.9653 54.0374V55.9145H94.5249V53.8037C94.5249 53.7593 94.5224 53.7148 94.5198 53.6686L94.5172 53.6211C94.514 53.5626 94.5101 53.5105 94.5024 53.4646C94.6613 53.3456 94.8157 53.2444 94.9746 53.1683C95.1289 53.091 95.2878 53.0525 95.4454 53.0525C95.6043 53.0525 95.7272 53.0734 95.814 53.1161C95.8996 53.161 95.9658 53.2236 96.0122 53.3071C96.0508 53.3874 96.0784 53.4928 96.0926 53.6253C96.1067 53.7578 96.1099 53.8934 96.1099 54.0374V55.9145ZM104.905 54.3233H102.453C102.453 54.5257 102.486 54.7041 102.544 54.8533C102.609 55.0036 102.693 55.1298 102.798 55.2237C102.904 55.3176 103.027 55.3917 103.168 55.4365C103.309 55.4856 103.466 55.5096 103.635 55.5065C103.864 55.5096 104.091 55.4648 104.321 55.374C104.549 55.2832 104.711 55.1955 104.809 55.109H104.841V55.7162C104.651 55.7924 104.458 55.8591 104.261 55.9145C104.064 55.9676 103.861 55.9917 103.642 55.9917C103.09 55.9917 102.662 55.8456 102.348 55.5482C102.038 55.2519 101.884 54.8293 101.884 54.2847C101.884 53.7442 102.032 53.3144 102.33 52.9972C102.625 52.6789 103.017 52.5225 103.501 52.5225C103.951 52.5225 104.295 52.6518 104.539 52.9137C104.784 53.1714 104.905 53.5418 104.905 54.0197V54.3233ZM104.36 53.8976C104.36 53.6044 104.285 53.3812 104.138 53.2205C103.994 53.0598 103.768 52.9794 103.473 52.9794C103.174 52.9794 102.936 53.0671 102.756 53.2444C102.58 53.4187 102.479 53.6357 102.453 53.8976H104.36ZM112.348 55.9145H112.907V53.7713C112.907 53.3665 112.812 53.0598 112.622 52.8438C112.436 52.6299 112.162 52.5225 111.803 52.5225C111.605 52.5225 111.413 52.5642 111.226 52.6446C111.04 52.7249 110.861 52.8364 110.685 52.9794V52.6132H110.126V55.9145H110.685V53.451C110.836 53.3352 110.998 53.2382 111.163 53.1641C111.331 53.088 111.49 53.0525 111.645 53.0525C111.793 53.0525 111.912 53.0702 112.007 53.1119C112.101 53.1537 112.172 53.2131 112.222 53.2966C112.271 53.3707 112.302 53.4751 112.32 53.6075C112.337 53.7401 112.348 53.8829 112.348 54.0374V55.9145ZM120.081 55.871C119.976 55.8981 119.86 55.9201 119.736 55.9367C119.61 55.9545 119.501 55.9649 119.402 55.9649C119.065 55.9649 118.806 55.8741 118.629 55.6926C118.453 55.5111 118.365 55.222 118.365 54.8204V53.0644H117.985V52.597H118.365V51.6475H118.925V52.597H120.081V53.0644H118.925V54.5689C118.925 54.7432 118.928 54.8798 118.935 54.9769C118.946 55.075 118.97 55.1657 119.02 55.2492C119.062 55.3295 119.125 55.3859 119.199 55.4245C119.276 55.4589 119.393 55.4766 119.55 55.4766C119.642 55.4766 119.736 55.462 119.835 55.438L119.861 55.4306C119.946 55.4061 120.012 55.3874 120.05 55.3712H120.081V55.871ZM77.0145 49.9396C77.1129 50.0575 77.302 50.1065 77.5452 50.1315C78.438 50.1315 79.4261 48.6729 80.5164 45.7723L80.6462 45.4261L80.8149 44.9757C81.188 43.9794 81.5071 43.1275 81.7921 42.442L84.9286 39.4684L84.0847 38.4876L83.5778 38.7735L82.9525 38.1276C83.3391 36.163 83.6273 34.2223 83.7965 32.3547C83.9901 30.4589 84.0847 28.6414 84.0847 26.8885C84.0847 26.0757 84.0635 25.5728 84.039 25.3767C84.0139 25.1857 83.9689 25.0908 83.8943 25.0908C83.8672 25.0908 83.8209 25.0908 83.7965 25.1159C83.7685 25.1159 83.7471 25.1246 83.7302 25.1315C83.7191 25.1361 83.7098 25.1399 83.7019 25.1399L81.866 25.7648C81.7219 25.8097 81.6274 25.9536 81.5991 26.1456C81.5991 26.2104 81.5928 26.2674 81.5872 26.3176L81.5862 26.3263C81.5817 26.367 81.5779 26.4032 81.5779 26.4357L79.0183 27.6564C78.9198 27.7023 78.8253 27.7514 78.8028 27.7993C78.7294 27.8453 78.705 27.8933 78.6799 27.9882C78.3184 29.0211 78.0019 30.1459 77.7626 31.3708C77.5194 32.6166 77.4011 33.5734 77.4011 34.2464C77.4011 34.3101 77.421 34.3566 77.441 34.4016C77.4422 34.4058 77.4442 34.4101 77.4461 34.4143C77.453 34.4172 77.4594 34.4203 77.4656 34.4234L77.4828 34.4323C77.5124 34.4485 77.54 34.4633 77.5941 34.4633H78.7545C78.7294 35.562 78.6799 36.7139 78.6066 37.9357C78.5358 39.1575 78.4129 40.4282 78.2438 41.7471C77.6648 42.5369 77.2557 43.1817 77.0145 43.6638C76.7958 44.1416 76.6768 44.5954 76.6768 45.0045V45.0744L76.8208 49.4127C76.8453 49.6568 76.8942 49.8456 77.0145 49.9396ZM117.426 43.1108C116.747 43.1108 116.217 42.7029 115.858 41.862C115.492 41.0241 115.106 38.9646 114.673 35.7051L110.571 40.5452L107.602 40.4514C107.479 40.4514 107.409 40.4273 107.359 40.3782C107.31 40.3292 107.286 40.2833 107.286 40.1863C107.286 40.1623 107.286 40.1415 107.31 40.0924V39.9703L108.373 34.1024C108.379 34.0702 108.385 34.0365 108.393 34.0003C108.411 33.8996 108.434 33.7801 108.47 33.6204C108.685 32.3256 108.807 31.5618 108.807 31.2718C108.807 30.9608 108.734 30.748 108.541 30.6019C108.348 30.4579 108.274 30.315 108.274 30.145C108.274 30.026 108.323 29.809 108.47 29.4292C108.59 29.0692 108.759 28.6404 108.998 28.1584C109.434 27.9664 109.842 27.8235 110.232 27.7504C110.616 27.6555 111.027 27.6064 111.438 27.6064C112.163 27.6064 112.669 27.7984 112.957 28.2033C113.274 28.5914 113.418 29.2852 113.418 30.2451V30.2455C113.418 30.6993 113.418 31.105 113.393 31.4878C113.386 31.6002 113.378 31.7101 113.37 31.8177L113.365 31.8909L113.365 31.8965C113.35 32.105 113.336 32.3048 113.323 32.4967C114.335 32.1368 115.252 31.8717 116.097 31.7048C116.92 31.5368 117.665 31.4638 118.365 31.4638C119.405 31.4638 120.126 31.6098 120.518 31.8968C120.925 32.1826 121.118 32.7586 121.118 33.6454C121.118 34.3643 121.069 35.488 120.925 37.0479C120.805 38.6045 120.756 39.7815 120.756 40.5942C120.756 40.8353 120.78 41.0001 120.851 41.0971C120.9 41.1671 121.023 41.2652 121.189 41.3142L121.118 41.816C120.369 42.2251 119.645 42.536 118.945 42.7728C118.27 42.9888 117.764 43.1108 117.426 43.1108ZM64.9224 41.4766L67.1908 42.4605L68.1782 41.7656C68.4947 38.3382 68.9765 34.9837 69.6301 31.6992C69.6635 31.5211 69.6931 31.3648 69.7189 31.2306L69.7288 31.1781C69.7865 30.8741 69.8205 30.6948 69.8205 30.6454V30.6453C69.8205 30.5514 69.8205 30.4534 69.7961 30.3804C69.7806 30.3316 69.7626 30.2946 69.7459 30.2603L69.738 30.2438C69.7337 30.2347 69.7296 30.2257 69.7259 30.2165L69.0962 29.3996C69.0921 29.3948 69.0878 29.3902 69.0835 29.3857L69.0799 29.3819C69.0628 29.364 69.0466 29.3471 69.0466 29.3266C68.9765 29.2317 68.927 29.1826 68.8775 29.1826C68.5893 29.1826 67.964 29.4486 66.9972 29.9265C66.0052 30.4086 65.1893 30.9563 64.5597 31.5323C63.8325 32.2511 63.1367 33.0399 62.4819 33.9508C61.8313 34.8376 61.4908 35.3405 61.4908 35.4626V35.5075C61.4697 35.5805 61.4697 35.6786 61.4697 35.7485L61.4908 37.8561L63.206 37.9302C63.2508 38.0358 63.294 38.1991 63.3525 38.4201L63.3752 38.5061C63.8818 40.2548 64.3874 41.2595 64.9224 41.4766ZM97.1239 42.4605L94.8558 41.4766C94.3218 41.2595 93.8156 40.2548 93.3087 38.5061C93.2386 38.2411 93.1858 38.0491 93.1408 37.9302L91.4529 37.8561L91.4033 35.7485C91.4033 35.6786 91.4033 35.5805 91.4246 35.5075C91.4246 35.4866 91.4529 35.4626 91.4529 35.4626C91.4529 35.3405 91.7661 34.8376 92.4165 33.9508C93.07 33.0399 93.7693 32.2511 94.5155 31.5323C95.1439 30.9563 95.9384 30.4086 96.9303 29.9265C97.8946 29.4486 98.5481 29.1826 98.8119 29.1826C98.8614 29.1826 98.9097 29.2317 98.9804 29.3266C98.9923 29.3397 98.9987 29.3515 99.005 29.3629L99.0055 29.3638C99.0113 29.3756 99.0177 29.3871 99.0293 29.3996L99.6591 30.2165C99.6635 30.2265 99.6681 30.2363 99.6729 30.2463L99.6797 30.2605C99.697 30.2947 99.715 30.3317 99.7298 30.3804C99.7536 30.4534 99.7787 30.5515 99.7787 30.6454C99.7787 30.7185 99.7086 31.0753 99.5645 31.6992C98.9097 34.9837 98.4285 38.3382 98.1364 41.7656L97.1239 42.4605ZM53.4528 42.2002C53.7424 42.2786 53.9035 42.3222 53.94 42.3222C54.0093 42.3222 54.0587 42.3222 54.1081 42.3013C54.1334 42.2731 54.1533 42.2283 54.1533 42.1793C54.1533 42.1094 54.1334 41.9664 54.0829 41.7014C53.7213 39.9736 53.528 38.1999 53.528 36.4021C53.528 35.1115 53.6016 33.9837 53.7707 33.0237C53.9148 32.068 54.1334 31.2302 54.4455 30.5071C53.8201 29.4074 53.1412 28.4475 52.4201 27.6838C51.7202 26.8908 51.2357 26.5069 50.9467 26.5069C50.8968 26.5069 50.8037 26.5518 50.6516 26.6251L50.6441 26.6288L50.644 26.6288C50.573 26.663 50.4894 26.7033 50.3916 26.7479C50.152 26.8668 49.9313 26.9639 49.7621 27.0349L49.6847 26.9734L49.6838 26.9727C49.3657 26.7202 49.152 26.5505 49.0411 26.4829C48.9181 26.3879 48.8235 26.3389 48.7499 26.3389L48.5314 26.5799L46.8896 27.9697C46.8434 28.0187 46.8192 28.0635 46.795 28.1366C46.7698 28.2065 46.7456 28.2806 46.7456 28.3505C46.7456 28.3776 46.7456 28.4266 46.7698 28.4725C46.7698 28.5026 46.7792 28.5323 46.7921 28.5725L46.7921 28.5726L46.7922 28.5727C46.8003 28.5982 46.8098 28.6278 46.8192 28.6645C45.1775 30.65 43.9467 32.4999 43.149 34.2246C42.3292 35.9483 41.9424 37.554 41.9424 39.0408C41.9424 39.7847 42.0128 40.3324 42.1852 40.7164C42.3292 41.1004 42.5677 41.2924 42.9094 41.2924C43.0743 41.2924 43.7281 40.9084 44.8643 40.1655C45.2826 39.8756 45.8567 39.504 46.5053 39.0841L46.5068 39.0831C47.5757 38.3914 48.8466 37.5688 49.9555 36.7652L50.9961 40.9533C50.9961 40.9815 51.017 41.0273 51.0422 41.0764C51.2146 41.4353 51.4742 41.6764 51.8158 41.7494C52.273 41.8652 52.7334 41.9873 53.1937 42.1302L53.3301 42.167L53.4528 42.2002ZM49.0621 34.1057L43.8973 37.4841C44.1853 36.3781 44.9378 34.2736 45.4938 33.2647C46.0214 32.2589 46.8896 31.1561 47.6169 30.4132L49.0621 34.1057ZM66.1072 28.0148L63.4775 26.3349L65.9875 23.4626C66.3471 23.0755 67.4613 22.6467 69.2689 22.1928C69.3544 22.1684 69.4265 22.15 69.4869 22.1347C69.548 22.1191 69.5963 22.1068 69.6336 22.0947L70.5721 24.0844C70.4769 24.171 70.3836 24.256 70.2923 24.3394C69.2238 25.3146 68.3998 26.0666 67.8234 26.552C67.2181 27.1028 66.6379 27.5849 66.1072 28.0148ZM93.4033 26.3349L96.0375 28.0148C96.5682 27.5849 97.1452 27.1028 97.775 26.552C98.2903 26.1024 99.0339 25.4243 99.9904 24.5518L100.143 24.4128L100.503 24.0844L99.5646 22.0947C99.5356 22.104 99.4996 22.1134 99.4578 22.1244C99.3915 22.1417 99.3111 22.1627 99.223 22.1928C97.3878 22.6467 96.3013 23.0755 95.9385 23.4626L93.4033 26.3349Z" fill="black"/>
</svg>
